<svg xmlns="http://www.w3.org/2000/svg" width="61.512" height="57.633" viewBox="0 0 61.512 57.633"><g fill-rule="evenodd" clip-rule="evenodd" fill="#3fd87d"><path d="M30.756 14.339a4.963 4.963 0 0 1 1.429 9.716l1.995 8.229h-6.85l1.997-8.229a4.964 4.964 0 0 1 1.429-9.716"/><path d="M11.835 4.65h37.842c3.952 0 7.186 3.233 7.186 7.186v22.953c0 3.952-3.233 7.187-7.186 7.187h-8.278v9.794c0 2.079-1.532.899-1.608.795L29.202 41.976H11.835c-3.952 0-7.185-3.234-7.185-7.187V11.836c0-3.953 3.233-7.186 7.185-7.186m34.213 41.974h3.629c6.519 0 11.835-5.315 11.835-11.835V11.836C61.512 5.317 56.195 0 49.677 0H11.835C5.317 0 0 5.317 0 11.836v22.953c0 6.52 5.317 11.835 11.835 11.835h15.441l9.129 9.129c1.337 1.444 3.552 2.184 5.449 1.765 2.772-.612 4.193-3.067 4.193-5.748v-5.146z"/></g></svg>